<svg width="570" height="664" viewBox="0 0 570 664" fill="none" xmlns="http://www.w3.org/2000/svg">
<path d="M142.768 516.913C221.321 560.527 348.68 560.528 427.233 516.914C505.786 473.299 505.786 402.587 427.233 358.973C348.68 315.358 221.32 315.358 142.767 358.971C64.2139 402.585 64.2139 473.299 142.768 516.913Z" fill="#F5F5F5"/>
<path d="M408.442 480.425C418.672 486.104 435.257 486.104 445.487 480.425C455.717 474.746 455.717 465.536 445.487 459.857C435.257 454.178 418.672 454.178 408.442 459.857C398.212 465.536 398.212 474.745 408.442 480.425Z" fill="#EBEBEB"/>
<path d="M136.748 472.227L146.009 465.999C146.009 465.999 153.649 459.457 157.433 447.313C160.295 438.123 159.901 431.131 157.848 427.628C155.323 423.316 148.789 424.069 148.529 433.16C148.019 451.06 143.535 463.445 136.748 472.227Z" fill="#3D5EE1"/>
<path opacity="0.2" d="M136.748 472.227L146.009 465.999C146.009 465.999 153.649 459.457 157.433 447.313C160.295 438.123 159.901 431.131 157.848 427.628C155.323 423.316 148.789 424.069 148.529 433.16C148.019 451.06 143.535 463.445 136.748 472.227Z" fill="black"/>
<path d="M136.749 472.891C136.567 472.891 136.391 472.791 136.279 472.604C136.1 472.303 136.164 471.89 136.423 471.681C157.851 454.408 153.7 430.343 153.656 430.101C153.59 429.743 153.786 429.39 154.093 429.313C154.403 429.233 154.704 429.463 154.77 429.821C154.817 430.071 159.146 454.978 137.071 472.773C136.973 472.854 136.86 472.891 136.749 472.891Z" fill="white"/>
<path d="M118.225 484.684C118.225 484.684 115.001 481.625 115.781 477.486C116.562 473.345 118.641 470.369 115.066 465.028C111.491 459.686 110.567 452.57 114.772 448.711C118.022 445.727 123.094 449.957 124.926 442.05C126.262 436.286 125.806 423.525 132.118 419.28C138.429 415.036 142.348 421.426 141.379 430.082C140.513 437.825 139.292 445.281 140.234 447.311C142.075 451.279 145.239 450.747 145.096 458.022C144.961 464.796 139.464 470.401 139.464 470.401L118.225 484.684Z" fill="#3D5EE1"/>
<path d="M128.818 478.223C128.533 478.223 128.288 477.976 128.252 477.639C126.621 461.904 130.508 434.735 133.724 426.66C133.857 426.326 134.193 426.179 134.481 426.337C134.767 426.491 134.89 426.885 134.758 427.217C131.599 435.154 127.824 462.439 129.384 477.481C129.422 477.844 129.198 478.174 128.886 478.219C128.863 478.222 128.841 478.223 128.818 478.223Z" fill="white"/>
<path d="M128.509 465.973C128.424 465.973 128.34 465.951 128.259 465.906C124.303 463.653 121.796 455.651 121.692 455.311C121.586 454.966 121.739 454.586 122.035 454.461C122.331 454.338 122.657 454.516 122.764 454.862C122.788 454.94 125.22 462.695 128.76 464.712C129.042 464.873 129.16 465.271 129.021 465.6C128.923 465.837 128.721 465.973 128.509 465.973Z" fill="white"/>
<path d="M128.445 471.277C128.219 471.277 128.005 471.119 127.916 470.858C127.8 470.518 127.941 470.132 128.233 469.996C134.889 466.889 139.039 457.649 139.08 457.556C139.225 457.23 139.568 457.1 139.847 457.27C140.128 457.437 140.237 457.838 140.092 458.165C139.917 458.562 135.703 467.939 128.656 471.229C128.587 471.261 128.516 471.277 128.445 471.277Z" fill="white"/>
<path d="M361.154 399.838C361.154 399.838 356.169 390.447 355.688 380.221C355.207 369.997 357.133 365.753 359.776 364.533C362.419 363.316 362.619 367.067 363.984 369.292C365.349 371.516 368.111 370.243 369.131 363.328C370.151 356.414 373.894 344.696 381.636 342.459C390.187 339.992 385.6 351.676 383.454 356.235C381.306 360.794 379.633 367.002 381.05 368.693C382.464 370.383 384.659 367.26 386.764 370.156C389.305 373.652 381.406 386.218 376.873 389.267L361.154 399.838Z" fill="#3D5EE1"/>
<path d="M367.983 395.885C367.973 395.885 367.962 395.885 367.953 395.883C367.639 395.863 367.398 395.551 367.414 395.186C368.669 367.993 380.061 349.16 380.176 348.973C380.36 348.673 380.717 348.607 380.971 348.82C381.227 349.033 381.286 349.449 381.102 349.746C380.989 349.931 369.788 368.468 368.551 395.257C368.536 395.61 368.285 395.885 367.983 395.885Z" fill="white"/>
<path d="M368.634 388.043C368.54 388.043 368.446 388.017 368.358 387.96C365.165 385.901 363.397 379.795 363.324 379.535C363.224 379.187 363.386 378.811 363.685 378.696C363.983 378.576 364.307 378.77 364.406 379.117C364.423 379.175 366.108 384.992 368.91 386.796C369.184 386.974 369.285 387.378 369.132 387.699C369.029 387.92 368.834 388.043 368.634 388.043Z" fill="white"/>
<path d="M369.192 384.02C368.937 384.02 368.705 383.821 368.641 383.519C368.563 383.162 368.748 382.802 369.052 382.713C377.281 380.29 380.131 375.266 380.158 375.215C380.328 374.907 380.681 374.818 380.945 375.014C381.209 375.21 381.289 375.619 381.119 375.927C380.998 376.152 378.037 381.436 369.332 383.999C369.286 384.013 369.239 384.02 369.192 384.02Z" fill="white"/>
<path d="M237.145 379.19C237.145 379.19 226.214 376.085 225.645 352.241C225.03 326.503 228.324 296.477 215.43 294.035C202.538 291.592 195.304 310.008 195.469 331.408C195.614 350.198 202.109 390.968 237.144 398.959L237.145 379.19Z" fill="#3D5EE1"/>
<path opacity="0.2" d="M237.145 379.19C237.145 379.19 226.214 376.085 225.645 352.241C225.03 326.503 228.324 296.477 215.43 294.035C202.538 291.592 195.304 310.008 195.469 331.408C195.614 350.198 202.109 390.968 237.144 398.959L237.145 379.19Z" fill="black"/>
<path d="M237.144 396.509C237.11 396.509 237.076 396.505 237.041 396.498C229.158 394.825 222.742 389.773 217.97 381.482C203.807 356.869 208.269 310.926 209.734 302.9C209.8 302.541 210.101 302.315 210.41 302.389C210.718 302.466 210.914 302.818 210.849 303.177C209.4 311.113 204.974 356.516 218.916 380.744C223.51 388.725 229.676 393.586 237.244 395.191C237.554 395.258 237.76 395.604 237.703 395.964C237.655 396.284 237.414 396.509 237.144 396.509Z" fill="white"/>
<path d="M237.145 457.723C225.842 459.508 207.483 459.476 196.909 449.76C186.334 440.045 188.533 431.67 192.602 428.178C196.669 424.684 200.202 420.692 193.205 412.94C186.206 405.189 174.958 392.732 171.321 374.044C167.684 355.358 169.475 343.68 176.633 339.785C183.579 336.006 185.408 342.009 189.659 354.387C193.911 366.767 203.479 356.153 211.659 360.018C219.839 363.881 219.518 371.532 220.034 378.108C220.55 384.683 223.251 386.501 227.883 386.501C232.514 386.501 237.143 389.615 237.144 395.843L237.145 457.723Z" fill="#3D5EE1"/>
<path d="M237.145 436.029C237.095 436.029 237.042 436.021 236.991 436.005C236.502 435.846 224.813 431.882 207.8 413.676C189.677 394.282 181.12 365.206 181.035 364.915C180.935 364.567 181.095 364.19 181.393 364.073C181.692 363.959 182.015 364.143 182.115 364.489C182.198 364.778 190.668 393.54 208.571 412.698C225.356 430.659 237.182 434.687 237.299 434.725C237.602 434.825 237.778 435.19 237.693 435.544C237.623 435.838 237.395 436.029 237.145 436.029Z" fill="white"/>
<path d="M212.535 418.311C212.307 418.311 212.091 418.15 212.003 417.888C208.345 406.936 207.516 383.525 207.483 382.534C207.471 382.169 207.716 381.86 208.031 381.844C208.322 381.848 208.61 382.115 208.622 382.481C208.63 382.722 209.477 406.661 213.066 417.405C213.18 417.748 213.035 418.133 212.741 418.265C212.673 418.296 212.603 418.311 212.535 418.311Z" fill="white"/>
<path d="M212.439 434.06C210.667 434.06 209.442 433.898 209.294 433.877C208.981 433.835 208.758 433.504 208.794 433.139C208.832 432.776 209.112 432.505 209.428 432.558C209.534 432.57 220.141 433.967 225.012 428.18C225.231 427.916 225.593 427.916 225.818 428.169C226.043 428.426 226.046 428.848 225.826 429.108C222.261 433.346 216.153 434.06 212.439 434.06Z" fill="white"/>
<path d="M204.229 182.589L203.004 174.309L196.661 179.171C196.026 177.756 195.21 176.619 194.25 175.761L197.285 166.198L191.635 164.727L187.46 173.993C186.078 174.242 184.617 174.785 183.112 175.643L181.306 168.659L174.539 174.857L174.982 183.09C173.612 184.866 172.359 186.807 171.241 188.85L165.649 188.528L161.728 198.765L166.53 201.15C166.023 203.351 165.697 205.536 165.582 207.637L159.486 214.167L160.71 222.447L167.052 217.585C167.687 219.001 168.503 220.137 169.464 220.995L166.429 230.558L172.08 232.03L178.051 225.248C179.435 225 179.097 221.973 180.602 221.115L182.408 228.099L189.176 221.901L189.002 218.662C190.371 216.888 195.543 212.97 196.661 210.928L198.066 208.229L201.986 197.993L200.16 194.139L198.133 189.121L204.229 182.589ZM183.558 209.88C178.367 214.634 176.786 215.671 175.846 209.319C174.907 202.968 177.944 193.281 183.136 188.527C188.328 183.771 190.321 183.417 191.259 189.769C192.197 196.12 188.75 205.124 183.558 209.88Z" fill="#E0E0E0"/>
<path d="M191.636 164.727L199.028 169.692L194.854 178.959L187.46 173.992L191.636 164.727Z" fill="#F5F5F5"/>
<path d="M210.398 179.275L204.057 184.137L196.663 179.17L203.005 174.309L210.398 179.275Z" fill="#F5F5F5"/>
<path d="M209.379 202.959L204.579 200.572L197.186 195.605L201.986 197.992L209.379 202.959Z" fill="#E0E0E0"/>
<path d="M166.429 230.559L173.823 235.526L176.857 225.963L169.464 220.996L166.429 230.559Z" fill="#E0E0E0"/>
<path d="M189.803 233.064L182.409 228.097L180.603 221.113L187.996 226.08L189.803 233.064Z" fill="#E0E0E0"/>
<path d="M211.622 187.554L210.397 179.274L204.055 184.136C203.42 182.72 202.603 181.584 201.643 180.726L204.679 171.163L199.028 169.691L194.853 178.958C193.471 179.207 192.009 179.75 190.504 180.608L188.697 173.624L181.93 179.821L182.374 188.055C181.005 189.829 179.751 191.772 178.632 193.815L173.041 193.493L169.12 203.729L173.922 206.114C173.415 208.316 173.09 210.501 172.973 212.603L166.878 219.133L168.102 227.413L174.444 222.551C175.079 223.965 175.895 225.104 176.855 225.961L173.82 235.524L179.471 236.996L183.646 227.729C185.029 227.482 186.489 226.938 187.994 226.08L189.801 233.064L196.568 226.866L196.124 218.632C197.495 216.858 198.748 214.915 199.866 212.873L205.458 213.194L209.377 202.958L204.575 200.573C205.083 198.371 205.409 196.186 205.523 194.085L211.622 187.554ZM190.951 214.845C185.76 219.6 180.789 218.304 179.85 211.952C178.91 205.601 182.359 196.595 187.551 191.841C192.742 187.086 197.711 188.38 198.651 194.732C199.59 201.085 196.143 210.089 190.951 214.845Z" fill="#EBEBEB"/>
<path d="M188.699 173.623L181.306 168.656L174.539 174.854L181.931 179.821L188.699 173.623Z" fill="#F5F5F5"/>
<path d="M174.539 174.855L174.982 183.089L182.374 188.054L181.931 179.822L174.539 174.855Z" fill="#E0E0E0"/>
<path d="M178.633 193.815L171.239 188.849L165.649 188.527L173.042 193.494L178.633 193.815Z" fill="#F5F5F5"/>
<path d="M165.649 188.527L161.728 198.764L169.121 203.73L173.042 193.494L165.649 188.527Z" fill="#E0E0E0"/>
<path d="M172.974 212.603L165.582 207.637L159.486 214.167L166.879 219.133L172.974 212.603Z" fill="#F5F5F5"/>
<path d="M168.103 227.415L160.71 222.448L159.486 214.168L166.879 219.135L168.103 227.415Z" fill="#E0E0E0"/>
<path d="M199.028 169.692L191.636 164.727L197.286 166.198L204.679 171.165L199.028 169.692Z" fill="#F5F5F5"/>
<path d="M171.106 145.036V132.668L162.657 137.105C162.148 134.821 161.373 132.863 160.375 131.247L165.698 118.744L159.196 114.371L152.563 125.994C150.863 125.796 149.02 125.991 147.067 126.621L146.14 115.878L136.947 122.062L136.02 134.049C134.067 136.048 132.224 138.332 130.524 140.816L123.891 138.117L117.389 151.234L122.712 156.576C121.716 159.532 120.939 162.535 120.43 165.504L111.981 172.433V184.799L120.43 180.362C120.939 182.646 121.716 184.604 122.712 186.22L117.389 198.723L123.891 203.095L130.524 191.473C132.224 191.671 134.067 191.475 136.02 190.847L136.947 201.589L146.14 195.406L147.067 183.418C149.806 182.353 152.738 179.883 154.437 177.399L159.195 179.351L165.697 166.235L161.708 162.231C162.704 159.275 162.81 154.548 162.655 151.965L171.106 145.036ZM141.545 175.912C134.491 180.656 130.107 177.29 130.107 167.803C130.107 158.316 135.936 146.693 142.989 141.95C150.042 137.206 154.315 140.656 154.315 150.143C154.316 159.632 148.598 171.168 141.545 175.912Z" fill="#E0E0E0"/>
<path d="M166.59 119.338L159.196 114.371L152.564 125.994L159.957 130.959L166.59 119.338Z" fill="#F5F5F5"/>
<path d="M178.499 137.635L171.106 132.668L162.657 137.105L170.05 142.072L178.499 137.635Z" fill="#F5F5F5"/>
<path d="M144.341 206.557L136.948 201.59L136.021 190.848L143.415 195.814L144.341 206.557Z" fill="#E0E0E0"/>
<path d="M117.391 198.722L124.784 203.689L130.107 191.185L122.714 186.219L117.391 198.722Z" fill="#E0E0E0"/>
<path d="M178.499 150.001V137.633L170.05 142.07C169.541 139.786 168.764 137.828 167.768 136.212L173.091 123.709L166.589 119.336L159.956 130.959C158.257 130.761 156.414 130.956 154.461 131.585L153.534 120.845L144.341 127.028L143.414 139.016C141.461 141.014 139.618 143.298 137.918 145.782L131.285 143.083L124.783 156.201L130.106 161.544C129.11 164.5 128.333 167.501 127.824 170.471L119.375 177.399V189.765L127.824 185.328C128.333 187.612 129.11 189.57 130.106 191.186L124.783 203.689L131.285 208.061L137.918 196.44C139.618 196.636 141.461 196.441 143.414 195.813L144.341 206.555L153.534 200.372L154.461 188.384C156.414 186.387 158.257 184.101 159.956 181.619L166.589 184.318L173.091 171.201L167.768 165.858C168.764 162.902 169.541 159.901 170.05 156.932L178.499 150.001ZM148.938 180.877C141.884 185.62 136.166 181.775 136.166 172.287C136.166 162.8 141.884 151.262 148.938 146.519C155.991 141.775 161.709 145.621 161.709 155.108C161.709 164.597 155.991 176.133 148.938 180.877Z" fill="#EBEBEB"/>
<path d="M130.527 140.816L137.919 145.782L131.286 143.084L123.893 138.117L130.527 140.816Z" fill="#F0F0F0"/>
<path d="M123.881 138.119L117.386 151.238L124.778 156.205L131.274 143.086L123.881 138.119Z" fill="#F5F5F5"/>
<path d="M117.391 151.234L124.784 156.201L130.107 161.545L122.714 156.577L117.391 151.234Z" fill="#E0E0E0"/>
<path d="M120.433 165.504L127.826 170.471L119.378 177.399L111.983 172.432L120.433 165.504Z" fill="#F5F5F5"/>
<path d="M111.983 172.434L119.378 177.4V189.765L111.983 184.8V172.434Z" fill="#E0E0E0"/>
<path d="M153.535 120.846L146.141 115.879L136.948 122.062L144.341 127.029L153.535 120.846Z" fill="#F5F5F5"/>
<path d="M248.381 475.492L355.569 403.402C356.659 402.667 356.66 401.479 355.571 400.743L345.655 394.06C344.565 393.325 342.797 393.323 341.706 394.058L234.489 466.148C233.398 466.883 233.398 468.071 234.489 468.804L244.432 475.492C245.523 476.224 247.291 476.224 248.381 475.492Z" fill="#E0E0E0"/>
<path d="M352.607 125.09L255.972 190.082C253.246 191.916 251.036 196.376 251.036 200.042V467.063C251.036 470.731 253.246 472.217 255.972 470.383L352.608 405.392C355.335 403.558 357.544 399.099 357.544 395.432L357.543 128.411C357.543 124.743 355.332 123.256 352.607 125.09Z" fill="#455A64"/>
<path d="M255.972 190.083L352.607 125.09C355.045 123.452 357.064 124.472 357.466 127.327C357.096 123.904 355.07 120.108 352.607 118.45L348.588 115.747C345.861 113.913 341.44 113.913 338.715 115.747L242.081 180.739C240.718 181.655 239.484 183.229 238.591 185.031L252.483 194.373C253.375 192.573 254.61 191 255.972 190.083Z" fill="#37474F"/>
<path d="M237.145 457.719C237.145 461.387 239.354 465.846 242.081 467.679L246.101 470.383C248.566 472.04 252.404 472.183 255.134 470.845C252.809 471.873 251.036 470.345 251.036 467.063V200.042C251.036 198.208 251.589 196.176 252.483 194.374L238.591 185.031C237.697 186.833 237.145 188.865 237.145 190.699V457.719Z" fill="#263238"/>
<path d="M258.629 225.672L349.95 164.253C351.587 163.152 352.913 164.044 352.913 166.245L352.914 363.831C352.914 366.032 351.587 368.708 349.951 369.807L258.631 431.227C256.995 432.327 255.669 431.434 255.669 429.235L255.668 231.649C255.667 229.447 256.994 226.771 258.629 225.672Z" fill="white"/>
<path d="M304.29 167.718C303.331 168.363 302.554 169.932 302.554 171.221C302.554 172.512 303.332 173.034 304.29 172.388C305.25 171.744 306.026 170.176 306.026 168.885C306.026 167.596 305.25 167.072 304.29 167.718Z" fill="#37474F"/>
<path d="M304.292 410C300.505 412.547 297.435 418.741 297.435 423.835C297.435 428.928 300.504 430.993 304.292 428.446C308.078 425.9 311.148 419.707 311.148 414.612C311.147 409.52 308.078 407.455 304.292 410Z" fill="#37474F"/>
<path d="M287.888 188.271C285.97 189.562 284.415 192.699 284.415 195.279C284.415 197.859 285.97 198.904 287.889 197.615C289.807 196.325 291.361 193.189 291.361 190.608C291.361 188.027 289.806 186.982 287.888 188.271Z" fill="#37474F"/>
<path d="M296.379 187.396C296.379 189.116 297.485 189.768 298.848 188.85L321.697 173.484C323.059 172.568 324.165 170.43 324.165 168.71C324.164 166.99 323.059 166.338 321.695 167.256L298.848 182.622C297.485 183.54 296.379 185.676 296.379 187.396Z" fill="#37474F"/>
<path d="M244.83 234.219C246.364 235.251 247.608 237.761 247.608 239.826C247.608 241.89 246.364 242.726 244.83 241.694C243.295 240.662 242.05 238.153 242.05 236.089C242.05 234.025 243.295 233.187 244.83 234.219Z" fill="#37474F"/>
<path d="M244.83 259.156C246.364 260.188 247.608 262.698 247.608 264.763C247.608 266.828 246.364 267.663 244.83 266.632C243.295 265.6 242.05 263.09 242.05 261.025C242.052 258.961 243.295 258.126 244.83 259.156Z" fill="#37474F"/>
<path d="M243.971 234.72C245.506 235.752 246.751 238.262 246.751 240.326C246.751 242.389 245.507 243.227 243.971 242.194C242.437 241.162 241.193 238.652 241.193 236.589C241.193 234.524 242.438 233.687 243.971 234.72Z" fill="#455A64"/>
<path d="M243.971 259.657C245.506 260.689 246.751 263.199 246.751 265.264C246.751 267.328 245.507 268.164 243.971 267.132C242.437 266.1 241.193 263.591 241.193 261.526C241.193 259.46 242.438 258.625 243.971 259.657Z" fill="#455A64"/>
<path d="M371.436 172.49C371.436 170.29 370.11 169.399 368.473 170.498L357.543 177.85L277.152 231.918C275.516 233.019 274.191 235.694 274.191 237.894L274.192 435.481C274.192 437.681 275.517 438.572 277.153 437.473L357.572 383.385L368.474 376.053C370.11 374.952 371.437 372.276 371.437 370.077L371.436 172.49Z" fill="white" stroke="#3D5EE1" stroke-miterlimit="10"/>
<path d="M275.83 438.608C275.45 438.608 275.093 438.502 274.774 438.288C274.031 437.787 273.622 436.79 273.622 435.479L273.621 237.893C273.621 235.444 275.047 232.566 276.867 231.342L357.258 177.273L357.828 178.423L277.437 232.492C275.986 233.468 274.761 235.941 274.761 237.893L274.762 435.479C274.762 436.284 274.974 436.888 275.344 437.138C275.715 437.387 276.27 437.297 276.868 436.896L357.287 382.808L357.857 383.957L277.438 438.044C276.882 438.421 276.335 438.608 275.83 438.608Z" fill="#3D5EE1" stroke="#3D5EE1" stroke-miterlimit="10"/>
<path d="M357.857 383.96L357.287 382.811L368.189 375.481C369.64 374.503 370.867 372.029 370.867 370.08L370.866 172.493C370.866 171.688 370.654 171.084 370.283 170.835C369.915 170.586 369.359 170.673 368.758 171.076L357.828 178.428L357.258 177.278L368.188 169.926C369.162 169.271 370.109 169.184 370.853 169.684C371.596 170.185 372.006 171.181 372.006 172.493L372.007 370.08C372.007 372.527 370.581 375.405 368.759 376.631L357.857 383.96Z" fill="#3D5EE1" stroke="#3D5EE1" stroke-miterlimit="10"/>
<path d="M322.814 218.408C333.044 211.528 341.337 217.105 341.337 230.866C341.337 244.627 333.044 261.358 322.814 268.24C312.583 275.12 304.291 269.543 304.291 255.782C304.291 242.021 312.583 225.288 322.814 218.408Z" fill="#3D5EE1"/>
<path d="M322.814 229.237C326.132 227.005 328.823 228.815 328.823 233.278C328.823 237.743 326.132 243.172 322.814 245.403C319.495 247.636 316.804 245.825 316.804 241.361C316.804 236.897 319.495 231.47 322.814 229.237Z" fill="#3D5EE1"/>
<path d="M334.526 253.039C334.526 245.705 330.105 242.731 324.654 246.399L321.245 248.691C315.794 252.358 311.373 261.277 311.373 268.611V270.585C314.525 271.804 318.492 271.144 322.814 268.236C327.258 265.246 331.335 260.395 334.526 254.739V253.039Z" fill="#3D5EE1"/>
<path opacity="0.7" d="M322.814 229.237C326.132 227.005 328.823 228.815 328.823 233.278C328.823 237.743 326.132 243.172 322.814 245.403C319.495 247.636 316.804 245.825 316.804 241.361C316.804 236.897 319.495 231.47 322.814 229.237Z" fill="white"/>
<path opacity="0.7" d="M334.526 253.043C334.526 245.709 330.105 242.735 324.654 246.403L321.245 248.695C315.794 252.362 311.373 261.281 311.373 268.615V270.589C314.525 271.808 318.492 271.148 322.814 268.239C327.258 265.25 331.335 260.399 334.526 254.743V253.043Z" fill="white"/>
<path d="M286.973 298.582L310.808 282.552C311.899 281.819 312.784 282.414 312.784 283.88V284.796C312.784 286.264 311.901 288.047 310.808 288.78L286.973 304.811C285.883 305.545 284.999 304.95 284.999 303.483V302.566C284.999 301.099 285.883 299.315 286.973 298.582Z" fill="#3D5EE1"/>
<path opacity="0.1" d="M286.973 298.582L310.808 282.552C311.899 281.819 312.784 282.414 312.784 283.88V284.796C312.784 286.264 311.901 288.047 310.808 288.78L286.973 304.811C285.883 305.545 284.999 304.95 284.999 303.483V302.566C284.999 301.099 285.883 299.315 286.973 298.582Z" fill="black"/>
<path d="M285.987 317.933L358.104 269.431C358.649 269.064 359.091 269.36 359.091 270.095V279.897C359.091 280.63 358.649 281.522 358.104 281.889L285.987 330.391C285.442 330.758 285 330.46 285 329.727V319.925C285 319.192 285.442 318.3 285.987 317.933Z" fill="#3D5EE1"/>
<path opacity="0.2" d="M285.987 317.933L358.104 269.431C358.649 269.064 359.091 269.36 359.091 270.095V279.897C359.091 280.63 358.649 281.522 358.104 281.889L285.987 330.391C285.442 330.758 285 330.46 285 329.727V319.925C285 319.192 285.442 318.3 285.987 317.933Z" fill="white"/>
<path d="M286.973 342.188L310.808 326.158C311.899 325.425 312.784 326.018 312.784 327.486V328.402C312.784 329.868 311.901 331.653 310.808 332.386L286.973 348.416C285.883 349.151 284.999 348.555 284.999 347.088V346.172C284.999 344.705 285.883 342.923 286.973 342.188Z" fill="#3D5EE1"/>
<path opacity="0.1" d="M286.973 342.188L310.808 326.158C311.899 325.425 312.784 326.018 312.784 327.486V328.402C312.784 329.868 311.901 331.653 310.808 332.386L286.973 348.416C285.883 349.151 284.999 348.555 284.999 347.088V346.172C284.999 344.705 285.883 342.923 286.973 342.188Z" fill="black"/>
<path d="M285.987 361.538L358.104 313.036C358.649 312.669 359.091 312.967 359.091 313.7V323.502C359.091 324.235 358.649 325.127 358.104 325.494L285.987 373.996C285.442 374.363 285 374.067 285 373.332V363.53C285 362.797 285.442 361.906 285.987 361.538Z" fill="#3D5EE1"/>
<path opacity="0.2" d="M285.987 361.538L358.104 313.036C358.649 312.669 359.091 312.967 359.091 313.7V323.502C359.091 324.235 358.649 325.127 358.104 325.494L285.987 373.996C285.442 374.363 285 374.067 285 373.332V363.53C285 362.797 285.442 361.906 285.987 361.538Z" fill="white"/>
<path d="M314.759 367.104L343.224 347.959C344.315 347.225 345.199 347.82 345.199 349.287V359.547C345.199 361.013 344.315 362.798 343.224 363.531L314.759 382.677C313.668 383.41 312.784 382.815 312.784 381.349V371.088C312.784 369.62 313.668 367.837 314.759 367.104Z" fill="#3D5EE1"/>
<path opacity="0.1" d="M314.759 367.104L343.224 347.959C344.315 347.225 345.199 347.82 345.199 349.287V359.547C345.199 361.013 344.315 362.798 343.224 363.531L314.759 382.677C313.668 383.41 312.784 382.815 312.784 381.349V371.088C312.784 369.62 313.668 367.837 314.759 367.104Z" fill="black"/>
<path d="M382.245 323.84C382.245 323.84 368.241 301.334 367.387 298.657C366.743 296.638 367.431 293.636 367.591 292.24C367.751 290.846 367.983 287.738 368.181 286.874C368.53 285.365 366.851 285.674 365.909 287.046C364.945 288.451 364.636 291.195 364.156 291.645C363.677 292.095 359.934 285.763 357.982 282.832C356.03 279.9 354.809 278.135 353.622 279.222C352.767 280.004 353.405 281.712 354.819 284.207C356.234 286.702 356.862 287.859 357.075 288.394C357.29 288.931 356.125 288.973 355.496 290.099C355.006 290.978 355.463 292.401 354.814 293.079C354.164 293.758 353.557 294.978 354.27 296.354C355.177 298.106 356.998 300.61 359.091 302.3C361.185 303.99 362.033 304.584 363.268 306.884C364.504 309.183 375.662 332.651 376.411 334.059C377.159 335.468 378.615 338.336 380.815 338.417C383.017 338.501 401.025 320.437 401.953 319.536C404.92 316.653 405.857 316.229 406.369 318.827C406.53 319.639 406.635 320.565 406.746 321.613C407.103 324.901 409.025 336.668 409.025 336.668C409.025 336.668 418.134 341.81 425.633 339.276C433.133 336.743 435.648 333.092 435.648 333.092L431.896 325.97C432.917 323.028 437.635 311.139 439.115 302.806L415.631 298.389C415.149 298.266 414.38 298.041 413.397 297.739C412.108 297.343 408.866 296.018 406.367 298.549C398.288 306.74 382.245 323.84 382.245 323.84Z" fill="#FFA8A7"/>
<path d="M428.804 461.865L424.594 468.68C424.594 468.68 426.545 470.012 430.709 470.197C434.477 470.364 435.512 468.923 435.651 468.576C436.287 466.988 435.294 464.121 435.022 461.656L428.804 461.865Z" fill="#37474F"/>
<path d="M424.83 465.41C424.83 465.41 419.729 465.031 416.201 464.513C412.673 463.994 409.882 466 410.712 467.694C411.542 469.384 413.483 470.792 416.505 471.976C419.095 472.992 422.199 473.729 424.903 474.672C427.674 475.639 429.448 476.744 431.018 476.116C432.768 475.413 433.519 474.598 433.371 473.113C433.223 471.629 431.954 466.848 431.954 466.848L424.83 465.41Z" fill="#37474F"/>
<path d="M435.65 455.018C435.65 455.018 435.011 461.208 434.962 462.537C434.913 463.865 429.777 464.291 428.803 461.865L428.643 454.297L435.65 455.018Z" fill="#F28F8F"/>
<path d="M430.47 458.828L432.307 468.218C432.307 468.218 432.481 469.363 428.281 470.092C424.082 470.823 417.498 467.533 416.377 466.865C415.256 466.196 415.122 464.867 419.246 465.132C423.37 465.399 424.83 465.408 424.83 465.408L423.492 461.245L430.47 458.828Z" fill="#FFA8A7"/>
<path d="M439.117 302.805L442.019 301.871C442.019 301.871 448.101 324.269 448.774 326.427C449.446 328.584 450.204 330.885 448.897 333.555C447.338 336.732 439.118 349.521 439.118 349.521L433.9 343.572L439.819 330.937L434.583 318.579L439.117 302.805Z" fill="#F28F8F"/>
<path d="M409.229 273.69C409.229 273.69 406.901 269.351 409.352 264.036C412.241 257.774 418.7 254.719 426.387 255.891C429.938 256.433 434.13 259.829 436.43 265.015C438.956 270.709 439.192 282.188 439.819 286.528L409.229 273.69Z" fill="#37474F"/>
<path d="M409.054 276.141C409.054 276.141 407.227 280.191 407.544 280.56C407.86 280.928 409.079 281.227 409.079 281.227L409.054 276.141Z" fill="#FFA8A7"/>
<path d="M414.596 263.333C412.61 264.842 409.192 267.598 409.041 276.701C408.887 286.044 410.02 289.056 411.206 290.14C412.006 290.87 416.688 290.5 418.698 289.95C420.709 289.4 426.49 286.074 428.57 281.014C431.017 275.063 430.522 266.349 426.881 263.819C421.757 260.259 416.277 262.057 414.596 263.333Z" fill="#FFA8A7"/>
<path d="M435.649 333.094C439.165 339.467 442.507 345.08 443.219 352.242C444.724 367.368 439.785 384.66 438.737 395.844C438.737 395.844 442.054 400.868 442.051 406.771C442.049 411.393 435.65 455.019 435.65 455.019C435.65 455.019 430.995 456.671 428.643 454.298L424.245 374.041L426.562 364.271L435.649 333.094Z" fill="#3D5EE1"/>
<path opacity="0.2" d="M435.649 333.094C439.165 339.467 442.507 345.08 443.219 352.242C444.724 367.368 439.785 384.66 438.737 395.844C438.737 395.844 442.054 400.868 442.051 406.771C442.049 411.393 435.65 455.019 435.65 455.019C435.65 455.019 430.995 456.671 428.643 454.298L424.245 374.041L426.562 364.271L435.649 333.094Z" fill="black"/>
<path d="M424.245 374.043L426.562 364.273C426.562 364.273 432.985 362.466 439.117 358.473C439.117 358.473 436.74 363.5 429.933 366.257L426.387 378.818L426.082 407.561L424.245 374.043Z" fill="#3D5EE1"/>
<path opacity="0.3" d="M424.245 374.043L426.562 364.273C426.562 364.273 432.985 362.466 439.117 358.473C439.117 358.473 436.74 363.5 429.933 366.257L426.387 378.818L426.082 407.561L424.245 374.043Z" fill="black"/>
<path d="M435.649 333.094C437.53 336.67 442.026 342.785 441.071 348.662C439.911 355.783 436.623 360.788 426.562 364.273L417.126 404.081C417.126 404.081 422.039 409.436 423.542 414.532C425.042 419.626 430.47 458.829 430.47 458.829C430.47 458.829 428.792 462.02 423.492 461.247C423.492 461.247 405.012 412.079 403.707 408.913C402.402 405.747 401.556 403.381 402.143 398.224C402.731 393.069 409.026 336.669 409.026 336.669L435.649 333.094Z" fill="#3D5EE1"/>
<path opacity="0.2" d="M435.649 333.094C437.53 336.67 442.026 342.785 441.071 348.662C439.911 355.783 436.623 360.788 426.562 364.273L417.126 404.081C417.126 404.081 422.039 409.436 423.542 414.532C425.042 419.626 430.47 458.829 430.47 458.829C430.47 458.829 428.792 462.02 423.492 461.247C423.492 461.247 405.012 412.079 403.707 408.913C402.402 405.747 401.556 403.381 402.143 398.224C402.731 393.069 409.026 336.669 409.026 336.669L435.649 333.094Z" fill="black"/>
<path d="M439.117 302.807L415.633 298.39C415.152 298.268 414.375 298.041 413.395 297.74L413.393 297.738C413.393 297.738 412.392 314.889 406.369 318.827C406.511 319.645 406.633 320.565 406.746 321.613C407.103 324.901 409.025 336.669 409.025 336.669C409.025 336.669 418.134 341.811 425.633 339.277C433.133 336.743 435.648 333.092 435.648 333.092L431.896 325.97C432.92 323.031 437.637 311.14 439.117 302.807Z" fill="#3D5EE1"/>
<path opacity="0.7" d="M439.117 302.807L415.633 298.39C415.152 298.268 414.375 298.041 413.395 297.74L413.393 297.738C413.393 297.738 412.392 314.889 406.369 318.827C406.511 319.645 406.633 320.565 406.746 321.613C407.103 324.901 409.025 336.669 409.025 336.669C409.025 336.669 418.134 341.811 425.633 339.277C433.133 336.743 435.648 333.092 435.648 333.092L431.896 325.97C432.92 323.031 437.637 311.14 439.117 302.807Z" fill="white"/>
<path d="M432.922 323.168C432.826 323.426 425.373 328.078 423.158 328.789C426.65 328.588 429.55 327.631 431.897 325.969L432.922 323.168Z" fill="#3D5EE1"/>
<path d="M414.01 263.796C414.01 263.796 412.916 272.432 415.566 277.497C415.566 277.497 416.562 274.06 419.069 274.716C421.593 275.377 421.699 279.195 419.946 281.36C418.193 283.525 416.243 282.742 416.243 282.742C416.243 282.742 415.848 288.984 415.637 294.218C415.433 299.26 414.226 310.855 419.281 315.517C424.337 320.18 437.006 321.754 442.945 312.083C446.248 306.703 441.859 297.194 439.819 286.53C437.941 276.725 436.886 262.195 427.955 259.864C419.024 257.533 414.01 263.796 414.01 263.796Z" fill="#37474F"/>
<path d="M446.769 145.848L444.887 147.115C445.038 146.308 445.144 145.507 445.144 144.735C445.144 140.293 442.466 138.492 439.163 140.714C438.202 141.36 437.309 142.294 436.504 143.377C436.504 143.366 436.505 143.354 436.505 143.344C436.505 137.364 432.901 134.939 428.455 137.929C424.009 140.92 420.403 148.192 420.403 154.173C420.403 154.478 420.419 154.767 420.438 155.053C419.497 154.857 418.374 155.126 417.167 155.938C413.864 158.16 411.187 163.561 411.187 168.005C411.187 168.617 411.242 169.172 411.338 169.679L410.335 170.354C407.608 172.188 405.399 175.765 405.399 178.346C405.399 180.925 407.609 181.53 410.335 179.698L446.769 155.193C449.496 153.359 451.706 149.782 451.706 147.201C451.706 144.62 449.496 144.014 446.769 145.848Z" fill="#EBEBEB"/>
</svg>
